{
  "accessors": [
    {
      "bufferView": 2,
      "componentType": 5126,
      "count": 65532,
      "max": [
        52.163021087646484,
        54.37392044067383,
        -12.98091983795166
      ],
      "min": [
        -51.770179748535156,
        -54.373809814453125,
        -61.96540832519531
      ],
      "type": "VEC3"
    },
    {
      "bufferView": 2,
      "byteOffset": 786384,
      "componentType": 5126,
      "count": 65532,
      "max": [
        0.9999421238899231,
        0.9996529221534729,
        0.9999997615814209
      ],
      "min": [
        -0.9995142221450806,
        -0.9999917149543762,
        -0.9884592890739441
      ],
      "type": "VEC3"
    },
    {
      "bufferView": 1,
      "componentType": 5126,
      "count": 65532,
      "max": [
        0.9993900060653687,
        0.9971799850463867
      ],
      "min": [
        0.005739999935030937,
        0.7294800281524658
      ],
      "type": "VEC2"
    },
    {
      "bufferView": 0,
      "componentType": 5125,
      "count": 355194,
      "type": "SCALAR"
    },
    {
      "bufferView": 2,
      "byteOffset": 1572768,
      "componentType": 5126,
      "count": 65533,
      "max": [
        52.078250885009766,
        54.37514877319336,
        -29.349660873413086
      ],
      "min": [
        -51.28810119628906,
        -54.37514877319336,
        -66.84600067138672
      ],
      "type": "VEC3"
    },
    {
      "bufferView": 2,
      "byteOffset": 2359164,
      "componentType": 5126,
      "count": 65533,
      "max": [
        0.9975818991661072,
        0.9997847676277161,
        0.9999724626541138
      ],
      "min": [
        -0.9958134293556213,
        -0.9997565746307373,
        -0.9985641837120056
      ],
      "type": "VEC3"
    },
    {
      "bufferView": 1,
      "byteOffset": 524256,
      "componentType": 5126,
      "count": 65533,
      "max": [
        0.9993900060653687,
        0.9996299743652344
      ],
      "min": [
        0.01286999974399805,
        0.6679099798202515
      ],
      "type": "VEC2"
    },
    {
      "bufferView": 0,
      "byteOffset": 1420776,
      "componentType": 5125,
      "count": 173931,
      "type": "SCALAR"
    },
    {
      "bufferView": 2,
      "byteOffset": 3145560,
      "componentType": 5126,
      "count": 65533,
      "max": [
        36.26264953613281,
        32.58879852294922,
        -63.115318298339844
      ],
      "min": [
        -29.095600128173828,
        -36.47856903076172,
        -74.05068969726563
      ],
      "type": "VEC3"
    },
    {
      "bufferView": 2,
      "byteOffset": 3931956,
      "componentType": 5126,
      "count": 65533,
      "max": [
        0.992146909236908,
        0.8995012640953064,
        0.9882458448410034
      ],
      "min": [
        -0.9989489316940308,
        -0.7156575918197632,
        -1.0
      ],
      "type": "VEC3"
    },
    {
      "bufferView": 1,
      "byteOffset": 1048520,
      "componentType": 5126,
      "count": 65533,
      "max": [
        0.9993900060653687,
        0.921999990940094
      ],
      "min": [
        0.0003699999942909926,
        0.6597899794578552
      ],
      "type": "VEC2"
    },
    {
      "bufferView": 0,
      "byteOffset": 2116500,
      "componentType": 5125,
      "count": 65553,
      "type": "SCALAR"
    },
    {
      "bufferView": 2,
      "byteOffset": 4718352,
      "componentType": 5126,
      "count": 49071,
      "max": [
        51.729469299316406,
        54.23905944824219,
        -35.61796951293945
      ],
      "min": [
        -52.163021087646484,
        -53.791439056396484,
        -68.08307647705078
      ],
      "type": "VEC3"
    },
    {
      "bufferView": 2,
      "byteOffset": 5307204,
      "componentType": 5126,
      "count": 49071,
      "max": [
        0.9967476725578308,
        0.973398745059967,
        0.9998478889465332
      ],
      "min": [
        -0.9999964833259583,
        -0.9865829944610596,
        -0.956072986125946
      ],
      "type": "VEC3"
    },
    {
      "bufferView": 1,
      "byteOffset": 1572784,
      "componentType": 5126,
      "count": 49071,
      "max": [
        0.9993900060653687,
        0.992609977722168
      ],
      "min": [
        0.0035200000274926424,
        0.6675300002098083
      ],
      "type": "VEC2"
    },
    {
      "bufferView": 0,
      "byteOffset": 2378712,
      "componentType": 5125,
      "count": 93510,
      "type": "SCALAR"
    }
  ],
  "asset": {
    "extras": {
      "author": "Qlone (https://sketchfab.com/Qlone)",
      "license": "CC-BY-ND-4.0 (http://creativecommons.org/licenses/by-nd/4.0/)",
      "source": "https://sketchfab.com/3d-models/avocado-4aa6b5d822204151805c3d2a423782a6",
      "title": "Avocado"
    },
    "generator": "Sketchfab-12.67.0",
    "version": "2.0"
  },
  "bufferViews": [
    {
      "buffer": 0,
      "byteLength": 2752752,
      "name": "floatBufferViews",
      "target": 34963
    },
    {
      "buffer": 0,
      "byteLength": 1965352,
      "byteOffset": 2752752,
      "byteStride": 8,
      "name": "floatBufferViews",
      "target": 34962
    },
    {
      "buffer": 0,
      "byteLength": 5896056,
      "byteOffset": 4718104,
      "byteStride": 12,
      "name": "floatBufferViews",
      "target": 34962
    }
  ],
  "buffers": [
    {
      "byteLength": 10614160,
      "uri": "scene.bin"
    }
  ],
  "extensionsUsed": [
    "KHR_materials_unlit"
  ],
  "images": [
    {
      "uri": "textures/material0_baseColor.jpeg"
    }
  ],
  "materials": [
    {
      "doubleSided": true,
      "emissiveTexture": {
        "index": 0
      },
      "extensions": {
        "KHR_materials_unlit": {}
      },
      "name": "material0",
      "pbrMetallicRoughness": {
        "baseColorTexture": {
          "index": 0
        },
        "metallicFactor": 0.0
      }
    }
  ],
  "meshes": [
    {
      "name": "Object_0",
      "primitives": [
        {
          "attributes": {
            "NORMAL": 1,
            "POSITION": 0,
            "TEXCOORD_0": 2
          },
          "indices": 3,
          "material": 0,
          "mode": 4
        }
      ]
    },
    {
      "name": "Object_1",
      "primitives": [
        {
          "attributes": {
            "NORMAL": 5,
            "POSITION": 4,
            "TEXCOORD_0": 6
          },
          "indices": 7,
          "material": 0,
          "mode": 4
        }
      ]
    },
    {
      "name": "Object_2",
      "primitives": [
        {
          "attributes": {
            "NORMAL": 9,
            "POSITION": 8,
            "TEXCOORD_0": 10
          },
          "indices": 11,
          "material": 0,
          "mode": 4
        }
      ]
    },
    {
      "name": "Object_3",
      "primitives": [
        {
          "attributes": {
            "NORMAL": 13,
            "POSITION": 12,
            "TEXCOORD_0": 14
          },
          "indices": 15,
          "material": 0,
          "mode": 4
        }
      ]
    }
  ],
  "nodes": [
    {
      "children": [
        1
      ],
      "matrix": [
        1.0,
        0.0,
        0.0,
        0.0,
        0.0,
        2.220446049250313e-16,
        -1.0,
        0.0,
        0.0,
        1.0,
        2.220446049250313e-16,
        0.0,
        0.0,
        0.0,
        0.0,
        1.0
      ],
      "name": "Sketchfab_model"
    },
    {
      "children": [
        2,
        3,
        4,
        5
      ],
      "name": "model_Avocado_20210206_170204399.obj.cleaner.materialmerger.gles"
    },
    {
      "mesh": 0,
      "name": "Object_2"
    },
    {
      "mesh": 1,
      "name": "Object_3"
    },
    {
      "mesh": 2,
      "name": "Object_4"
    },
    {
      "mesh": 3,
      "name": "Object_5"
    }
  ],
  "samplers": [
    {
      "magFilter": 9729,
      "minFilter": 9987,
      "wrapS": 10497,
      "wrapT": 10497
    }
  ],
  "scene": 0,
  "scenes": [
    {
      "name": "Sketchfab_Scene",
      "nodes": [
        0
      ]
    }
  ],
  "textures": [
    {
      "sampler": 0,
      "source": 0
    }
  ]
}
